# xmcd CD database file
#
# Track frame offsets:
#	150
#	15632
#	35430
#	48547
#	63733
#	87814
#	104651
#	120878
#	135322
#	153716
#	171587
#	192307
#	206898
#	220216
#	224011
#
# Disc length: 3223 seconds
#
# Revision: 1
# Processed by: cddbd v1.4PL0 Copyright (c) Steve Scherf et al.
# Submitted via: CDex 1.40Release
#
DISCID=e60c950f
DTITLE=Tamara Stewart - The Way The World Is
DYEAR=2001
DGENRE=Country
TTITLE0=It's A Good Thing (You're Crazy)
TTITLE1=Simple Things
TTITLE2=Just The Way I Am
TTITLE3=Way Too Easy
TTITLE4=The Way The World Is
TTITLE5=Like I Do
TTITLE6=Lying Down
TTITLE7=Wild Child
TTITLE8=Here Comes The Rain (with Rick Price)
TTITLE9=Shelli
TTITLE10=When You've Lost Your Faith
TTITLE11=Nothing To Prove
TTITLE12=That Makes Me Cry
TTITLE13=The Way The World Is (Reprise)
TTITLE14=For The Sake Of Ourselves
EXTD=YEAR: 2001 ID3G: 2
EXTT0=
EXTT1=
EXTT2=
EXTT3=
EXTT4=
EXTT5=
EXTT6=
EXTT7=
EXTT8=
EXTT9=
EXTT10=
EXTT11=
EXTT12=
EXTT13=
EXTT14=
PLAYORDER=
